<?xml version="1.0" standalone="no"?>
<!DOCTYPE svg PUBLIC "-//W3C//DTD SVG 20010904//EN"
 "http://www.w3.org/TR/2001/REC-SVG-20010904/DTD/svg10.dtd">
<svg version="1.0" xmlns="http://www.w3.org/2000/svg"
 width="99.000000pt" height="99.000000pt" viewBox="0 0 99.000000 99.000000"
 preserveAspectRatio="xMidYMid meet">
<metadata>
Created by potrace 1.11, written by Peter Selinger 2001-2013
</metadata>
<g transform="translate(0.000000,99.000000) scale(0.100000,-0.100000)"
fill="#000000" stroke="none">
<path d="M453 921 c-262 -181 -383 -273 -389 -295 -7 -28 140 -491 163 -516
11 -12 54 -15 249 -17 129 -1 243 -4 253 -8 10 -3 24 2 34 13 10 10 50 117 91
236 65 193 73 222 64 253 -7 26 -53 79 -179 204 -94 93 -173 169 -177 170 -4
0 -15 2 -24 4 -9 2 -48 -18 -85 -44z m312 -538 l-60 -178 -207 -3 -207 -2 -61
191 c-52 160 -60 193 -48 205 7 7 89 67 183 133 l170 121 145 -145 145 -145
-60 -177z"/>
<path d="M370 480 c0 -193 1 -200 20 -200 19 0 20 7 20 127 l0 128 72 -128 72
-127 37 0 c21 0 38 5 41 13 3 10 2 281 -1 365 -1 16 -6 22 -18 20 -15 -3 -17
-18 -16 -131 0 -70 -1 -127 -2 -127 -2 0 -38 58 -80 130 -74 127 -77 130 -111
130 l-34 0 0 -200z"/>
</g>
</svg>
